<svg width="22" height="8" viewBox="0 0 22 8" fill="none" xmlns="http://www.w3.org/2000/svg">
<path d="M0 4C0 2.75736 1.00736 1.75 2.25 1.75C3.49264 1.75 4.5 2.75736 4.5 4C4.5 5.24264 3.49264 6.25 2.25 6.25C1.00736 6.25 0 5.24264 0 4Z" fill="white"/>
<path d="M7.5 4C7.5 2.75736 8.50736 1.75 9.75 1.75C10.9926 1.75 12 2.75736 12 4C12 5.24264 10.9926 6.25 9.75 6.25C8.50736 6.25 7.5 5.24264 7.5 4Z" fill="white"/>
<path d="M15 4C15 2.067 16.567 0.5 18.5 0.5C20.433 0.5 22 2.067 22 4C22 5.933 20.433 7.5 18.5 7.5C16.567 7.5 15 5.933 15 4Z" fill="white"/>
</svg>
